<svg width="209" height="87" viewBox="0 0 209 87" fill="none" xmlns="http://www.w3.org/2000/svg">
<g clip-path="url(#clip0)">
<path d="M76.9438 33.2293C77.3351 27.4238 72.8919 22.3392 67.0179 21.8705C62.5369 21.5153 58.524 23.9522 56.6962 27.7016L48.2771 23.6023L46.6447 19.0041C45.4323 15.5852 41.6587 13.7467 38.2183 14.9012L25.9801 19.0028L26.6393 20.86L38.8779 16.7575C41.2863 15.95 43.9267 17.2367 44.7767 19.6297L45.7495 22.3716L43.6301 21.3397C43.068 33.3472 21.3266 45.0045 34.9632 55.3821C34.9509 55.3818 34.9368 55.3806 34.9442 55.3887C38.7829 59.2369 36.6784 62.9328 33.4217 65.7911C29.9719 68.8185 25.8089 67.65 25.7626 67.6546C25.6174 67.6652 25.4494 67.8409 25.3604 68.0654C25.2765 68.2911 25.2964 68.4985 25.4142 68.5558L40.5777 75.939C40.6946 75.9959 40.8719 75.8846 40.9951 75.6779C41.1197 75.4709 41.1507 75.2284 41.0704 75.108C41.0446 75.0683 37.5601 72.5132 37.8148 67.9301C38.0567 63.6029 39.6687 59.6682 45.0635 60.3159C45.0763 60.3175 45.0648 60.3063 45.057 60.2968C57.1213 63.452 58.1685 51.4435 61.3517 41.6441C62.6662 42.3486 64.1124 42.7735 65.5991 42.8921C71.4718 43.3612 76.5508 39.0339 76.9438 33.2293ZM40.5841 56.6629C21.4904 47.3661 44.2391 34.7352 45.0629 23.0834L46.1989 23.6365L50.161 34.7969C48.5987 33.3562 46.894 31.9715 44.7928 30.9484C44.4796 30.7959 44.1597 30.6526 43.8271 30.5166C42.0772 33.9413 39.1925 37.402 37.1343 40.7523C33.8918 46.0336 32.7072 51.0462 41.2843 55.2224C48.425 58.6993 51.8489 56.4907 54.0414 52.3032C55.6871 49.1576 56.6393 44.896 57.9463 41.0795C57.8149 41.0223 57.6871 40.9623 57.5583 40.8996C55.9996 40.1407 54.6461 39.0321 53.3163 37.8006L48.7241 24.8649L56.3196 28.5631C55.9687 29.4925 55.7416 30.4856 55.6713 31.5302C55.428 35.1179 57.0349 38.4273 59.6826 40.5456C56.2101 50.6865 55.0372 63.7002 40.5841 56.6629ZM54.3174 46.5094L54.6682 46.3921C54.2231 47.8167 53.7655 49.1742 53.2373 50.3889C53.1569 50.3521 53.0748 50.3143 52.9926 50.2743C51.0714 49.3389 49.4097 47.7312 47.6507 46.0286C45.6178 44.0628 43.3136 41.8327 40.2272 40.3299C39.9788 40.209 39.7287 40.094 39.4736 39.9845C40.0098 39.1871 40.5791 38.3799 41.1694 37.5411C42.3263 35.8982 43.5149 34.211 44.5036 32.5076C46.9567 33.7891 48.8782 35.6498 50.7372 37.4507C50.9221 37.63 51.1066 37.8034 51.2915 37.9804L54.3174 46.5094ZM54.3316 40.657C54.8871 41.0799 55.4573 41.4818 56.0669 41.8329C55.8559 42.4982 55.6558 43.1622 55.4556 43.8238L54.3316 40.657ZM58.8278 37.7843C59.0917 37.8733 59.3628 37.7387 59.5499 37.8185C59.6014 37.8402 60.3868 37.2365 61.361 36.4513C61.2547 36.6627 61.1484 36.8741 61.0466 37.0923C60.3373 37.7162 59.7831 38.2235 59.6514 38.4034C59.5333 38.5695 59.7305 38.7955 59.704 38.9983C59.6909 39.0925 59.8388 39.2458 60.0824 39.4299L59.9182 39.8832C57.5466 37.8937 56.1157 34.8677 56.3369 31.5877C56.4017 30.6549 56.6008 29.7364 56.9282 28.8606L57.4661 29.1225C57.0839 29.9745 56.8258 30.6927 56.9 30.8372C57.0252 31.0812 57.3192 31.178 57.3956 31.3621C57.4371 31.458 61.1241 31.8502 63.3841 32.004L63.8544 32.233C61.7643 32.0478 57.9414 31.7284 57.3862 31.8083C57.1817 31.8408 57.1617 32.1349 56.998 32.2552C56.5581 32.5742 58.4015 37.6366 58.8278 37.7843ZM65.6412 42.2326C64.2102 42.1177 62.8199 41.6999 61.5625 41.0069C61.6277 40.815 61.6948 40.6239 61.7613 40.4338C63.1361 41.1529 64.7308 41.8311 64.9514 41.7261C65.2004 41.609 65.2896 41.3237 65.476 41.2518C65.619 41.1972 66.222 33.5484 65.9588 33.697C65.7334 33.8234 65.6027 33.6117 65.5207 33.4668C65.8341 33.1178 66.1595 32.7837 66.5106 32.4802L65.087 31.7871C65.1604 31.6455 65.3854 31.5709 65.4317 31.5223C65.4317 31.5223 60.7957 26.1631 60.1577 25.7079C59.9884 25.5847 59.7628 25.7743 59.5571 25.7419C59.2714 25.6999 58.5055 26.9808 57.8659 28.2711L57.2979 27.9946C59.0124 24.4781 62.773 22.195 66.9731 22.5287C72.4788 22.9672 76.6475 27.734 76.2783 33.1764C75.91 38.6169 71.1479 42.6738 65.6412 42.2326Z" fill="#E63B2E"/>
<path d="M72.9623 25.7983C73.0352 25.2611 68.1131 22.8769 67.7131 23.0674C67.4668 23.1858 67.3758 23.4725 67.1898 23.5435C67.0464 23.599 66.4461 31.2491 66.7075 31.0996C67.0055 30.9307 67.141 31.3671 67.2125 31.4336C67.2125 31.4336 72.563 27.0058 73.0135 26.3892C73.1326 26.2258 72.9358 25.9989 72.9623 25.7983Z" fill="#E63B2E"/>
<path d="M75.766 33.8824C75.6408 33.6362 75.3486 33.5402 75.2681 33.3553C75.2103 33.2142 67.4045 32.4465 67.5621 32.7052C67.741 33.0035 67.299 33.1249 67.2307 33.1933C67.2307 33.1933 71.8698 38.5529 72.5046 39.01C72.6767 39.1322 72.9023 38.9427 73.1079 38.9728C73.6552 39.0574 75.971 34.2782 75.766 33.8824Z" fill="#E63B2E"/>
<path d="M66.2915 23.2733C65.9562 22.8344 60.839 24.5258 60.6999 24.9415C60.6149 25.1995 60.7554 25.4679 60.681 25.6508C60.6239 25.7913 65.7148 31.7425 65.7895 31.4524C65.8755 31.1227 66.2821 31.3478 66.3802 31.3458C66.3802 31.3458 66.886 24.4235 66.7544 23.6659C66.7173 23.4614 66.4172 23.4351 66.2915 23.2733Z" fill="#E63B2E"/>
<path d="M66.9961 33.5174C66.911 33.8476 66.5021 33.6248 66.404 33.6268C66.404 33.6268 65.9005 40.5468 66.0321 41.3067C66.0678 41.5071 66.3674 41.5343 66.4922 41.6956C66.8289 42.1341 71.9456 40.4413 72.0843 40.0265C72.1716 39.7708 72.0261 39.5011 72.1041 39.3177C72.1622 39.1799 67.0707 33.2296 66.9961 33.5174Z" fill="#E63B2E"/>
<path d="M67.3757 31.7661C67.716 31.8561 67.498 32.2527 67.5009 32.3489C67.5009 32.3489 74.561 33.0054 75.3329 32.8933C75.5361 32.8634 75.5575 32.5666 75.7198 32.4468C76.1588 32.1274 74.3158 27.064 73.8905 26.9168C73.627 26.8269 73.3545 26.9619 73.1666 26.884C73.026 26.8246 67.0833 31.687 67.3757 31.7661Z" fill="#E63B2E"/>
</g>
<path d="M95.0317 24.5998C95.7997 24.5998 96.4637 24.6238 97.0237 24.6718C97.5837 24.7038 98.0957 24.7598 98.5597 24.8398C99.0237 24.9198 99.5037 25.0238 99.9997 25.1518L99.7117 27.8638C99.1837 27.8318 98.6957 27.8078 98.2477 27.7918C97.7997 27.7758 97.3197 27.7598 96.8077 27.7438C96.3117 27.7278 95.7197 27.7198 95.0317 27.7198C94.2157 27.7198 93.5757 27.8878 93.1117 28.2238C92.6477 28.5438 92.3197 29.0958 92.1277 29.8798C91.9517 30.6638 91.8637 31.7598 91.8637 33.1678C91.8637 34.5598 91.9517 35.6558 92.1277 36.4558C92.3197 37.2398 92.6477 37.7918 93.1117 38.1118C93.5757 38.4318 94.2157 38.5918 95.0317 38.5918C96.1357 38.5918 97.0637 38.5838 97.8157 38.5678C98.5677 38.5358 99.3117 38.4718 100.048 38.3758L100.36 41.0638C99.5917 41.3038 98.8077 41.4718 98.0077 41.5678C97.2077 41.6798 96.2157 41.7358 95.0317 41.7358C93.3197 41.7358 91.9437 41.4638 90.9037 40.9198C89.8797 40.3598 89.1437 39.4558 88.6957 38.2078C88.2477 36.9598 88.0237 35.2798 88.0237 33.1678C88.0237 31.0558 88.2477 29.3758 88.6957 28.1278C89.1437 26.8798 89.8797 25.9838 90.9037 25.4398C91.9437 24.8798 93.3197 24.5998 95.0317 24.5998ZM109.987 24.5518C111.299 24.5518 112.403 24.6958 113.299 24.9838C114.211 25.2558 114.947 25.7198 115.507 26.3758C116.067 27.0318 116.475 27.9118 116.731 29.0158C116.987 30.1198 117.115 31.5038 117.115 33.1678C117.115 34.8318 116.987 36.2158 116.731 37.3198C116.475 38.4238 116.067 39.3038 115.507 39.9598C114.947 40.6158 114.211 41.0798 113.299 41.3518C112.403 41.6238 111.299 41.7598 109.987 41.7598C108.675 41.7598 107.563 41.6238 106.651 41.3518C105.739 41.0798 105.003 40.6158 104.443 39.9598C103.883 39.3038 103.475 38.4238 103.219 37.3198C102.979 36.2158 102.859 34.8318 102.859 33.1678C102.859 31.5038 102.979 30.1198 103.219 29.0158C103.475 27.9118 103.883 27.0318 104.443 26.3758C105.003 25.7198 105.739 25.2558 106.651 24.9838C107.563 24.6958 108.675 24.5518 109.987 24.5518ZM109.987 27.4318C109.139 27.4318 108.475 27.5998 107.995 27.9358C107.531 28.2718 107.195 28.8558 106.987 29.6878C106.795 30.5198 106.699 31.6798 106.699 33.1678C106.699 34.6558 106.795 35.8158 106.987 36.6478C107.195 37.4798 107.531 38.0638 107.995 38.3998C108.475 38.7198 109.139 38.8798 109.987 38.8798C110.819 38.8798 111.475 38.7198 111.955 38.3998C112.435 38.0638 112.771 37.4798 112.963 36.6478C113.155 35.8158 113.251 34.6558 113.251 33.1678C113.251 31.6798 113.155 30.5198 112.963 29.6878C112.771 28.8558 112.435 28.2718 111.955 27.9358C111.475 27.5998 110.819 27.4318 109.987 27.4318ZM127.303 24.5998C128.071 24.5998 128.735 24.6238 129.295 24.6718C129.855 24.7038 130.367 24.7598 130.831 24.8398C131.295 24.9198 131.775 25.0238 132.271 25.1518L131.983 27.8638C131.455 27.8318 130.967 27.8078 130.519 27.7918C130.071 27.7758 129.591 27.7598 129.079 27.7438C128.583 27.7278 127.991 27.7198 127.303 27.7198C126.487 27.7198 125.847 27.8878 125.383 28.2238C124.919 28.5438 124.591 29.0958 124.399 29.8798C124.223 30.6638 124.135 31.7598 124.135 33.1678C124.135 34.5598 124.223 35.6558 124.399 36.4558C124.591 37.2398 124.919 37.7918 125.383 38.1118C125.847 38.4318 126.487 38.5918 127.303 38.5918C128.407 38.5918 129.335 38.5838 130.087 38.5678C130.839 38.5358 131.583 38.4718 132.319 38.3758L132.631 41.0638C131.863 41.3038 131.079 41.4718 130.279 41.5678C129.479 41.6798 128.487 41.7358 127.303 41.7358C125.591 41.7358 124.215 41.4638 123.175 40.9198C122.151 40.3598 121.415 39.4558 120.967 38.2078C120.519 36.9598 120.295 35.2798 120.295 33.1678C120.295 31.0558 120.519 29.3758 120.967 28.1278C121.415 26.8798 122.151 25.9838 123.175 25.4398C124.215 24.8798 125.591 24.5998 127.303 24.5998ZM139.565 24.8878V29.5678C139.565 30.2558 139.501 30.9198 139.373 31.5598H140.861L145.085 24.8878H149.045L144.725 31.5598C144.549 31.8478 144.357 32.0958 144.149 32.3038C143.941 32.4958 143.733 32.6638 143.525 32.8078V32.8798C143.749 33.0238 143.989 33.2238 144.245 33.4798C144.501 33.7358 144.709 33.9998 144.869 34.2718L149.333 41.4478H145.253L140.885 34.1038H139.373C139.437 34.3918 139.485 34.6718 139.517 34.9438C139.549 35.2158 139.565 35.4798 139.565 35.7358V41.4478H135.917V24.8878H139.565ZM164.448 24.8878V27.7678H159.456V41.4478H155.808V27.7678H150.816V24.8878H164.448ZM173.998 24.8878C174.302 24.8878 174.566 24.9758 174.79 25.1518C175.03 25.3278 175.19 25.5598 175.27 25.8478L180.07 41.4478H176.326L175.102 37.0558H169.39L168.19 41.4478H164.446L169.246 25.8478C169.326 25.5598 169.478 25.3278 169.702 25.1518C169.942 24.9758 170.214 24.8878 170.518 24.8878H173.998ZM171.574 29.2558L170.158 34.3198H174.334L172.942 29.2558C172.862 28.9998 172.79 28.7358 172.726 28.4638C172.678 28.1758 172.63 27.9038 172.582 27.6478H171.934C171.886 27.9038 171.83 28.1758 171.766 28.4638C171.702 28.7358 171.638 28.9998 171.574 29.2558ZM186.366 24.8878V41.4478H182.718V24.8878H186.366ZM194.263 24.8878V37.2718C194.263 38.0878 194.695 38.4958 195.559 38.4958H201.343L201.511 41.2558C200.359 41.3838 199.159 41.4558 197.911 41.4718C196.679 41.4878 195.463 41.4958 194.263 41.4958C193.047 41.4958 192.135 41.1758 191.527 40.5358C190.919 39.8958 190.615 39.0718 190.615 38.0638V24.8878H194.263Z" fill="#FBFFFE"/>
<path d="M102.568 48.8878V64.1278C102.568 65.0078 102.128 65.4478 101.248 65.4478H99.2317C98.8317 65.4478 98.5277 65.3598 98.3197 65.1838C98.1277 64.9918 97.9357 64.7118 97.7437 64.3438L93.1597 55.6318C92.9677 55.2798 92.7757 54.8798 92.5837 54.4318C92.4077 53.9838 92.2557 53.5518 92.1277 53.1358H91.8637C91.9757 54.0318 92.0317 54.8958 92.0317 55.7278V65.4478H88.5757V50.2078C88.5757 49.3278 89.0157 48.8878 89.8957 48.8878H91.8877C92.2717 48.8878 92.5597 48.9838 92.7517 49.1758C92.9597 49.3518 93.1597 49.6158 93.3517 49.9678L97.7917 58.4158C97.9837 58.7838 98.1837 59.1998 98.3917 59.6638C98.5997 60.1118 98.7997 60.5678 98.9917 61.0318H99.2797C99.2317 60.5678 99.1917 60.1118 99.1597 59.6638C99.1437 59.1998 99.1357 58.7358 99.1357 58.2718V48.8878H102.568ZM114.729 48.8878C115.033 48.8878 115.297 48.9758 115.521 49.1518C115.761 49.3278 115.921 49.5598 116.001 49.8478L120.801 65.4478H117.057L115.833 61.0558H110.121L108.921 65.4478H105.177L109.977 49.8478C110.057 49.5598 110.209 49.3278 110.433 49.1518C110.673 48.9758 110.945 48.8878 111.249 48.8878H114.729ZM112.305 53.2558L110.889 58.3198H115.065L113.673 53.2558C113.593 52.9998 113.521 52.7358 113.457 52.4638C113.409 52.1758 113.361 51.9038 113.313 51.6478H112.665C112.617 51.9038 112.561 52.1758 112.497 52.4638C112.433 52.7358 112.369 52.9998 112.305 53.2558ZM134.426 48.8878V51.7678H129.434V65.4478H125.786V51.7678H120.794V48.8878H134.426ZM141.111 48.8878V65.4478H137.463V48.8878H141.111ZM151.984 48.5518C153.296 48.5518 154.4 48.6958 155.296 48.9838C156.208 49.2558 156.944 49.7198 157.504 50.3758C158.064 51.0318 158.472 51.9118 158.728 53.0158C158.984 54.1198 159.112 55.5038 159.112 57.1678C159.112 58.8318 158.984 60.2158 158.728 61.3198C158.472 62.4238 158.064 63.3038 157.504 63.9598C156.944 64.6158 156.208 65.0798 155.296 65.3518C154.4 65.6238 153.296 65.7598 151.984 65.7598C150.672 65.7598 149.56 65.6238 148.648 65.3518C147.736 65.0798 147 64.6158 146.44 63.9598C145.88 63.3038 145.472 62.4238 145.216 61.3198C144.976 60.2158 144.856 58.8318 144.856 57.1678C144.856 55.5038 144.976 54.1198 145.216 53.0158C145.472 51.9118 145.88 51.0318 146.44 50.3758C147 49.7198 147.736 49.2558 148.648 48.9838C149.56 48.6958 150.672 48.5518 151.984 48.5518ZM151.984 51.4318C151.136 51.4318 150.472 51.5998 149.992 51.9358C149.528 52.2718 149.192 52.8558 148.984 53.6878C148.792 54.5198 148.696 55.6798 148.696 57.1678C148.696 58.6558 148.792 59.8158 148.984 60.6478C149.192 61.4798 149.528 62.0638 149.992 62.3998C150.472 62.7198 151.136 62.8798 151.984 62.8798C152.816 62.8798 153.472 62.7198 153.952 62.3998C154.432 62.0638 154.768 61.4798 154.96 60.6478C155.152 59.8158 155.248 58.6558 155.248 57.1678C155.248 55.6798 155.152 54.5198 154.96 53.6878C154.768 52.8558 154.432 52.2718 153.952 51.9358C153.472 51.5998 152.816 51.4318 151.984 51.4318ZM176.836 48.8878V64.1278C176.836 65.0078 176.396 65.4478 175.516 65.4478H173.5C173.1 65.4478 172.796 65.3598 172.588 65.1838C172.396 64.9918 172.204 64.7118 172.012 64.3438L167.428 55.6318C167.236 55.2798 167.044 54.8798 166.852 54.4318C166.676 53.9838 166.524 53.5518 166.396 53.1358H166.132C166.244 54.0318 166.3 54.8958 166.3 55.7278V65.4478H162.844V50.2078C162.844 49.3278 163.284 48.8878 164.164 48.8878H166.156C166.54 48.8878 166.828 48.9838 167.02 49.1758C167.228 49.3518 167.428 49.6158 167.62 49.9678L172.06 58.4158C172.252 58.7838 172.452 59.1998 172.66 59.6638C172.868 60.1118 173.068 60.5678 173.26 61.0318H173.548C173.5 60.5678 173.46 60.1118 173.428 59.6638C173.412 59.1998 173.404 58.7358 173.404 58.2718V48.8878H176.836Z" fill="#E63B2E"/>
<defs>
<clipPath id="clip0">
<rect width="65" height="65" fill="white" transform="translate(28.455) rotate(25.9616)"/>
</clipPath>
</defs>
</svg>
